# Blender 3.4.1
# www.blender.org
mtllib WoodDesk.mtl
o SM_WoodDesk
v -0.404600 0.046769 -1.468658
v 0.451442 -0.000073 -1.468658
v -0.451442 -0.000073 -1.468658
v -0.451442 -0.000073 -1.416658
v 0.399442 -0.000073 -1.416658
v -0.404600 0.046769 -1.416658
v 0.399442 0.046769 -1.416658
v 0.432609 0.046383 -1.444843
v -0.409552 0.046383 -1.444843
v -0.451442 0.723876 -1.416658
v -0.451442 0.765276 -1.468658
v -0.409552 0.726960 -1.444843
v -0.404600 0.729034 -1.416658
v 0.451442 0.046769 -1.468658
v 0.432609 0.726960 -1.444843
v -0.404600 0.729034 -1.468658
v 0.399442 0.729034 -1.416658
v 0.399442 0.723876 -1.416658
v 0.449151 0.765277 1.460108
v 0.441377 0.770577 1.464921
v 0.442892 0.765277 1.466367
v 0.447705 0.770577 1.458593
v 0.437355 0.774457 1.461003
v 0.432732 0.770577 1.467238
v 0.428568 0.774457 1.463358
v 0.434343 0.765277 1.468658
v 0.442925 0.729034 1.466375
v 0.449160 0.729034 1.460141
v 0.451442 0.729034 1.451624
v 0.434408 0.729034 1.468658
v -0.404600 0.729034 1.468657
v -0.450022 0.770577 1.467238
v -0.451442 0.765277 1.468657
v -0.451442 0.723877 1.416658
v 0.440558 0.729034 1.457774
v 0.399442 -0.000072 1.416658
v 0.451442 -0.000072 1.468658
v 0.399442 0.046770 1.416658
v 0.432609 0.046384 1.444843
v 0.432609 0.726961 1.444843
v 0.399442 0.729034 1.416658
v 0.435594 0.023349 1.460881
v 0.435594 0.737204 1.460881
v 0.423825 0.737204 1.464034
v 0.423825 0.023349 1.464035
v 0.395362 0.737204 1.464034
v 0.395362 0.737204 1.417192
v 0.395362 0.023349 1.464035
v 0.447362 0.737204 1.417192
v 0.395362 0.023349 1.417192
v 0.444209 0.023349 1.452266
v 0.447362 0.023349 1.440497
v 0.447362 0.023349 1.417192
v -0.404600 0.729034 1.416658
v 0.399442 0.723877 1.416658
v -0.409552 0.726961 1.444843
v -0.404600 0.046770 1.468658
v -0.404600 0.046770 1.416658
v -0.451442 -0.000072 1.468658
v 0.451442 0.046770 1.468658
v -0.409552 0.046384 1.444843
v -0.451442 -0.000072 1.416658
v 0.446142 0.774456 -1.445784
v 0.450022 0.770577 1.449948
v 0.450022 0.770576 -1.449948
v 0.451442 0.765277 1.451559
v 0.451442 0.765276 -1.451559
v 0.440842 0.775877 1.440337
v 0.440842 0.775876 -1.440337
v 0.451442 0.729034 -1.451624
v -0.440842 0.775877 1.458058
v -0.440842 0.775876 -1.458058
v -0.446142 0.774457 1.463358
v -0.446142 0.774456 -1.463358
v -0.450022 0.770576 -1.467238
v 0.438468 0.775876 -1.449198
v 0.443788 0.774456 -1.454571
v 0.447705 0.770576 -1.458593
v 0.449151 0.765276 -1.460108
v 0.441377 0.770576 -1.464921
v 0.442892 0.765276 -1.466367
v 0.431982 0.775876 -1.455684
v 0.437355 0.774456 -1.461004
v 0.423121 0.775876 -1.458058
v 0.432732 0.770576 -1.467238
v 0.428568 0.774456 -1.463358
v 0.434343 0.765276 -1.468658
v 0.442925 0.729034 -1.466375
v 0.449160 0.729034 -1.460141
v 0.434409 0.729034 -1.468658
v 0.444209 0.737204 1.452266
v 0.447362 0.737204 1.440497
v 0.440558 0.729034 -1.457774
v 0.446142 0.774457 1.445784
v 0.423121 0.775877 1.458058
v 0.395363 0.737204 -1.417192
v 0.395363 0.023348 -1.417192
v 0.447363 0.737204 -1.417192
v 0.447363 0.023348 -1.440497
v 0.447363 0.737204 -1.440497
v 0.444209 0.023348 -1.452265
v 0.444209 0.737204 -1.452266
v 0.435594 0.023348 -1.460881
v 0.435594 0.737204 -1.460881
v 0.423825 0.023348 -1.464034
v 0.423825 0.737204 -1.464035
v 0.395363 0.737204 -1.464035
v 0.395363 0.023348 -1.464034
v 0.447363 0.023348 -1.417192
v 0.431981 0.775877 1.455684
v 0.438468 0.775877 1.449197
v 0.443787 0.774457 1.454571
vn 0.5029 -0.0000 -0.8644
vn 0.4963 0.1733 -0.8507
vn 0.8507 0.1733 -0.4962
vn 0.7071 0.0002 -0.7071
vn -0.0000 -0.0000 1.0000
vn -0.0000 1.0000 -0.0000
vn 0.1101 0.7629 -0.6371
vn 0.0474 0.8754 -0.4810
vn 0.2042 0.9034 -0.3771
vn 0.3074 0.8118 -0.4965
vn -1.0000 -0.0000 -0.0000
vn -0.9930 0.1181 -0.0000
vn -0.0000 0.1182 -0.9930
vn -0.0000 -0.0000 -1.0000
vn 0.9784 0.1499 0.1420
vn 0.8366 0.5366 0.1105
vn 0.8199 0.3547 0.4494
vn 0.8507 0.1733 0.4963
vn -0.3313 0.8834 0.3313
vn -0.1021 0.9895 -0.1021
vn -0.3313 0.8834 -0.3313
vn 0.1025 0.2836 -0.9535
vn 0.1420 0.1499 -0.9785
vn -0.0000 0.2588 -0.9659
vn -0.0000 -1.0000 -0.0000
vn 0.4494 0.3547 -0.8199
vn 0.8199 0.3547 -0.4494
vn -0.1020 0.9895 0.1020
vn 0.1336 0.9910 0.0080
vn 0.1337 0.9910 -0.0079
vn 0.8366 0.5366 -0.1105
vn 0.4965 0.8118 -0.3074
vn 0.3771 0.9034 -0.2041
vn 0.4810 0.8754 -0.0474
vn 0.9910 -0.0000 -0.1337
vn 0.9659 0.0002 -0.2590
vn 0.9785 0.1499 -0.1420
vn 0.1338 -0.0000 -0.9910
vn 0.9910 -0.0000 0.1337
vn 0.1419 0.1499 0.9785
vn 0.1337 -0.0000 0.9910
vn 0.4810 0.8754 0.0474
vn -0.0000 0.1183 0.9930
vn 0.8644 -0.0000 0.5028
vn 0.8643 -0.0000 0.5029
vn 0.5028 -0.0000 0.8644
vn -0.0079 0.9999 -0.0079
vn -0.0079 0.9999 0.0080
vn -0.0080 0.9999 0.0079
vn 0.2041 0.9034 0.3771
vn 0.0474 0.8754 0.4810
vn 0.1102 0.7628 0.6371
vn 0.3074 0.8118 0.4965
vn 1.0000 -0.0000 -0.0000
vn 0.1337 -0.0000 -0.9910
vn -0.9930 0.1184 -0.0000
vn 0.5029 -0.0000 0.8644
vn 0.7071 -0.0001 0.7071
vn 0.4962 0.1733 0.8507
vn 0.9787 -0.0000 0.2052
vn 0.9787 -0.0000 0.2053
vn 0.9787 -0.0000 0.2051
vn -0.0000 0.9999 -0.0162
vn -0.0000 0.9999 0.0162
vn 0.0078 0.9910 -0.1337
vn 0.0552 0.9932 -0.1025
vn 0.1026 0.9936 -0.0474
vn 0.9787 -0.0000 -0.2051
vn 0.9787 -0.0000 -0.2052
vn -0.7071 0.7071 -0.0000
vn -0.0000 0.7071 -0.7071
vn 0.3771 0.9034 0.2041
vn 0.1025 0.9936 0.0474
vn 0.4965 0.8118 0.3074
vn 0.4494 0.3548 0.8199
vn 0.1025 0.2837 0.9534
vn 0.0551 0.9932 0.1025
vn 0.0080 0.9910 0.1336
vn -0.9659 0.2588 -0.0000
vn 0.9659 0.0005 0.2588
vn -0.0000 0.7071 0.7071
vn -0.0000 0.2588 0.9659
vn 0.8643 -0.0000 -0.5029
vn 0.5028 -0.0000 -0.8644
vt 0.348428 0.235665
vt 0.410113 0.147815
vt 0.001313 0.057564
vt 0.449406 0.359034
vt 0.429393 0.176239
vt 0.348609 0.353177
vt 0.001313 0.025535
vt 0.417434 0.155926
vt 0.455264 0.353177
vt 0.349098 0.181483
vt 0.417434 0.160319
vt 0.425488 0.181484
vt 0.294184 0.052745
vt 0.342265 0.235665
vt 0.353247 0.185877
vt 0.429393 0.170382
vt 0.425488 0.185877
vt 0.342265 0.140481
vt 0.294184 0.056650
vt 0.820312 0.565918
vt 0.003449 0.132734
vt 1.004883 0.565918
vt 0.410113 0.145863
vt 0.003449 0.057075
vt 0.348853 0.246403
vt 0.348609 0.340185
vt 0.352514 0.160319
vt 0.265141 0.134198
vt 0.260078 0.014434
vt 0.455264 0.443723
vt 0.348609 0.339021
vt 0.348853 0.155926
vt 0.264715 0.010529
vt 0.348428 0.010103
vt 0.348853 0.176665
vt 1.004883 0.970169
vt 0.349342 0.145863
vt 0.353002 0.246892
vt 0.352758 0.339697
vt 0.007415 0.337619
vt 0.348853 0.170382
vt 0.348609 0.359034
vt 0.001313 0.134198
vt 0.348428 0.134624
vt 0.001313 0.019678
vt 0.820312 0.970169
vt 0.449894 0.439330
vt 0.348853 0.147815
vt 0.001313 0.337619
vt 0.354467 0.181058
vt 0.348853 0.176239
vt 0.425000 0.339697
vt 0.007415 0.242436
vt 0.519207 0.057563
vt 0.425000 0.340185
vt 0.265141 0.058052
vt 0.519207 0.057075
vt 0.001313 0.007725
vt 0.348853 0.348358
vt 0.001313 0.019252
vt 0.348609 0.348358
vt 0.347940 0.442747
vt 0.349586 0.347870
vt 0.349586 0.348358
vt 0.001496 0.008213
vt 0.347208 0.443479
vt 0.348853 0.347870
vt 0.347452 0.442015
vt 0.348184 0.441526
vt 0.350806 0.347870
vt 0.351294 0.347382
vt 0.347696 0.441038
vt 0.350562 0.348358
vt 0.348123 0.237555
vt 0.349586 0.352751
vt 0.347391 0.236579
vt 0.348609 0.352751
vt 0.001313 0.014859
vt 0.002290 0.014859
vt 0.346414 0.236090
vt 0.348428 0.238531
vt 0.350562 0.352751
vt 0.348428 0.337619
vt 0.449650 0.352751
vt 0.348609 0.340611
vt 0.354467 0.333226
vt 0.410113 0.150682
vt 0.001496 0.009615
vt 0.455020 0.347870
vt 0.348853 0.169956
vt 0.348853 0.337619
vt 0.001313 0.010529
vt 0.001313 0.010103
vt 0.455020 0.348358
vt 0.352514 0.165075
vt 0.006012 0.014434
vt 0.348853 0.144949
vt 0.519268 0.134198
vt 0.349342 0.155500
vt 0.347147 0.237555
vt 0.548312 0.052745
vt 0.425244 0.164649
vt 0.455752 0.247317
vt 0.348428 0.025535
vt 0.548312 0.056650
vt 0.425244 0.160744
vt 0.007415 0.140481
vt 0.262763 0.132734
vt 0.188110 0.565918
vt 0.188110 0.970169
vt 0.425244 0.145437
vt 0.342265 0.242436
vt 0.265141 0.057564
vt 0.276125 0.056650
vt 0.101292 0.462132
vt 0.018886 0.056650
vt 0.253723 0.462133
vt 0.253724 0.464793
vt 0.101293 0.464793
vt 0.018886 0.056650
vt 0.253724 0.470871
vt 0.916641 0.286671
vt 0.001313 0.041518
vt 0.276125 0.056650
vt 0.101293 0.470871
vt 0.916641 0.303348
vt 0.001313 0.041518
vt 0.687692 0.286671
vt 0.293758 0.041518
vt 0.280518 0.053233
vt 0.284972 0.049328
vt 0.687692 0.303348
vt 0.293758 0.041518
vt 0.342265 0.337619
vt 0.348609 0.346956
vt 0.353247 0.145437
vt 0.348853 0.151107
vt 0.425244 0.144949
vt 0.519268 0.058052
vt 0.265141 0.057075
vt 0.410113 0.148241
vt 0.003826 0.970169
vt 0.429149 0.340611
vt 0.264715 0.057564
vt 0.001313 0.235665
vt 0.354711 0.253175
vt 0.348853 0.150682
vt 0.429149 0.346956
vt 0.410113 0.151107
vt 0.007415 0.235665
vt 0.353002 0.160744
vt 0.417434 0.169956
vt 0.349342 0.247317
vt 0.455752 0.253175
vt 0.264715 0.134198
vt 0.001313 0.134624
vt 0.348428 0.019678
vt 0.262763 0.057075
vt 0.348853 0.148241
vt 0.003826 0.565918
vt 0.417434 0.165075
vt 0.414018 0.155500
vt 0.348853 0.164649
vt 0.344767 0.008701
vt 0.003876 0.443235
vt 0.002534 0.008213
vt 0.345987 0.443723
vt 0.003388 0.443723
vt 0.345255 0.008213
vt 0.002351 0.007725
vt 0.002290 0.019252
vt 0.345438 0.019252
vt 0.345499 0.007725
vt 0.345011 0.442503
vt 0.004486 0.442503
vt 0.345438 0.014859
vt 0.003266 0.236090
vt 0.346964 0.338533
vt 0.002412 0.338533
vt 0.001924 0.009127
vt 0.454531 0.347382
vt 0.347696 0.338045
vt 0.001802 0.338045
vt 0.347940 0.009127
vt 0.349342 0.338045
vt 0.348853 0.338533
vt 0.348428 0.009615
vt 0.003449 0.442259
vt 0.002839 0.442991
vt 0.455020 0.338533
vt 0.002351 0.443479
vt 0.346231 0.008213
vt 0.455264 0.176665
vt 0.455020 0.339021
vt 0.346475 0.019252
vt 0.346475 0.007725
vt 0.454043 0.338533
vt 0.001619 0.442747
vt 0.454287 0.339021
vt 0.454531 0.176665
vt 0.002717 0.441526
vt 0.002046 0.442015
vt 0.002412 0.440550
vt 0.001313 0.441526
vt 0.453067 0.338533
vt 0.452579 0.338045
vt 0.001802 0.441038
vt 0.453311 0.339021
vt 0.453555 0.176665
vt 0.454531 0.181058
vt 0.001557 0.237555
vt 0.455264 0.181058
vt 0.346475 0.014859
vt 0.002290 0.236579
vt 0.453555 0.181058
vt 0.001313 0.238531
vt 0.014493 0.053233
vt 0.010100 0.049328
vt 0.002534 0.237555
vt 0.003022 0.008701
vt 0.345499 0.443235
vt 0.346964 0.440550
vt 0.001313 0.025961
vt 0.916641 0.326643
vt 0.293758 0.025961
vt 0.687692 0.326643
vt 0.001313 0.025961
vt 0.916641 0.309965
vt 0.284972 0.033771
vt 0.010100 0.033771
vt 0.280518 0.037676
vt 0.014493 0.037676
vt 0.253723 0.470936
vt 0.276125 0.041093
vt 0.101292 0.470936
vt 0.018886 0.041093
vt 0.253724 0.473596
vt 0.101293 0.473596
vt 0.018886 0.041093
vt 0.101293 0.479674
vt 0.276125 0.041093
vt 0.253724 0.479674
vt 0.293758 0.025961
vt 0.687692 0.309965
vt 0.346719 0.441526
vt 0.345987 0.442259
vt 0.346719 0.442991
s 1
usemtl Wood.009
f 88/210/1 81/200/2 79/193/3 89/212/4
f 4/10/5 5/12/5 6/15/5
f 7/18/6 1/1/6 6/14/6
f 85/204/7 86/207/8 83/202/9 80/198/10
f 34/95/11 62/161/11 59/152/11 33/90/12
f 11/30/13 1/4/14 3/9/14
f 66/170/15 64/166/16 22/65/17 19/58/18
f 6/15/5 10/25/5 4/10/5
f 1/4/14 14/42/14 2/6/14
f 7/17/5 6/15/5 5/12/5
f 1/1/6 7/18/6 14/44/6
f 73/182/19 72/179/20 74/183/21
f 10/25/5 6/15/5 13/38/5
f 1/4/14 11/30/13 16/47/14
f 85/205/22 87/208/23 11/31/13 75/186/24
f 31/83/25 54/134/25 41/112/25 30/81/25
f 18/55/14 10/26/14 13/39/14
f 79/194/3 81/199/2 80/197/26 78/190/27
f 18/55/14 13/39/14 17/52/14
f 71/178/28 68/174/29 69/175/30 72/179/20
f 65/168/31 78/191/32 77/189/33 63/165/34
f 85/205/22 80/197/26 81/199/2 87/208/23
f 70/176/35 89/213/36 79/195/3 67/172/37
f 81/200/2 88/210/1 90/215/38 87/209/23
f 67/172/37 66/171/15 29/79/39 70/176/35
f 26/73/40 31/84/5 30/82/41
f 63/164/34 94/220/42 64/166/16 65/169/31
f 65/169/31 64/166/16 66/170/15 67/173/37
f 26/73/40 33/94/43 31/84/5
f 33/92/12 10/29/11 34/96/11
f 29/80/25 28/76/25 35/100/25
f 108/241/11 97/225/11 96/223/11 107/239/11
f 51/130/44 91/217/45 43/116/46 42/114/46
f 38/107/6 14/44/6 7/18/6
f 39/108/47 14/43/48 8/21/49
f 23/68/50 25/72/51 24/69/52 20/62/53
f 27/74/25 30/81/25 35/100/25
f 28/76/25 27/74/25 35/100/25
f 30/81/25 41/112/25 35/100/25
f 41/112/25 29/80/25 35/100/25
f 31/85/54 57/143/54 58/148/54 54/135/54
f 49/126/14 53/132/14 50/128/14 47/122/14
f 107/240/14 106/238/55 105/237/55 108/242/14
f 92/218/39 52/131/39 53/133/54 49/127/54
f 44/118/41 45/119/41 42/115/46 43/117/46
f 38/105/11 7/19/11 5/13/11 36/101/11
f 10/27/11 11/32/56 3/8/11 4/11/11
f 41/111/5 54/136/5 55/138/5
f 27/75/57 28/77/58 19/59/18 21/64/59
f 34/97/5 55/138/5 54/136/5
f 33/91/43 57/146/5 31/86/5
f 34/98/25 10/28/25 18/56/25 55/139/25
f 1/2/60 16/48/61 12/37/60 9/23/62
f 39/108/47 61/158/63 57/144/63 60/155/47
f 54/137/14 58/149/14 34/99/14
f 8/21/49 14/43/48 1/3/64 9/24/64
f 57/145/6 60/156/6 38/107/6
f 57/146/5 37/103/5 60/154/5
f 36/102/14 58/151/14 38/106/14
f 74/183/21 84/203/65 86/207/8
f 33/91/43 59/153/5 57/146/5
f 34/99/14 58/149/14 62/162/14
f 38/107/6 58/150/6 57/145/6
f 33/92/12 11/33/56 10/29/11
f 37/103/5 57/146/5 59/153/5
f 58/151/14 36/102/14 62/163/14
f 84/203/65 74/183/21 72/179/20
f 14/43/48 39/108/47 60/155/47
f 14/44/6 38/107/6 60/156/6
f 1/4/14 2/6/14 3/9/14
f 90/216/25 17/53/25 13/40/25 16/49/25
f 68/174/29 63/165/34 69/175/30
f 77/189/33 83/202/9 82/201/66 76/188/67
f 57/147/68 61/159/69 56/141/68 31/87/69
f 70/177/25 17/53/25 93/219/25
f 75/187/70 32/88/70 73/180/19 74/184/21
f 75/186/71 74/185/21 86/206/8 85/205/7
f 17/53/25 90/216/25 93/219/25
f 112/247/72 94/221/42 68/174/29 111/246/73
f 22/66/74 64/167/16 94/221/42 112/247/72
f 20/63/75 24/70/76 26/73/40 21/64/59
f 78/191/32 80/198/10 83/202/9 77/189/33
f 82/201/66 69/175/30 76/188/67
f 112/247/72 111/246/73 110/245/77 23/68/50
f 84/203/65 69/175/30 82/201/66
f 22/66/74 112/247/72 23/68/50 20/62/53
f 110/245/77 95/222/78 25/72/51 23/68/50
f 11/34/56 33/93/12 32/88/79 75/187/79
f 29/79/39 66/171/15 19/60/18 28/78/80
f 67/173/37 79/196/3 78/192/27 65/169/31
f 14/45/54 60/157/54 37/104/54 2/7/54
f 30/82/41 27/75/57 21/64/59 26/73/40
f 83/202/9 86/207/8 84/203/65 82/201/66
f 25/71/51 73/181/19 32/89/81 24/70/52
f 16/50/14 87/209/23 90/215/38
f 24/70/76 32/89/82 33/94/43 26/73/40
f 87/209/23 16/50/14 11/35/13
f 89/214/25 70/177/25 93/219/25
f 72/179/20 73/182/19 71/178/28
f 63/165/34 68/174/29 94/221/42
f 69/175/30 84/203/65 72/179/20
f 88/211/25 89/214/25 93/219/25
f 90/216/25 88/211/25 93/219/25
f 95/222/78 71/178/28 73/182/19
f 47/123/11 50/129/11 48/124/11 46/120/11
f 68/174/29 71/178/28 95/222/78
f 95/222/78 73/182/19 25/72/51
f 46/121/5 48/125/5 45/119/41 44/118/41
f 52/131/39 92/218/39 91/217/45 51/130/44
f 98/227/54 109/243/54 99/229/35 100/230/35
f 100/230/35 99/229/35 101/231/83 102/232/83
f 104/235/84 103/233/84 105/237/55 106/238/55
f 68/174/29 110/245/77 111/246/73
f 41/112/25 17/53/25 70/177/25 29/80/25
f 63/165/34 77/189/33 76/188/67 69/175/30
f 68/174/29 95/222/78 110/245/77
f 19/61/18 22/67/17 20/63/75 21/64/59
f 102/232/83 101/231/83 103/234/84 104/236/84
f 1/5/54 16/51/54 13/41/54 6/16/54
f 97/226/5 109/244/5 98/228/5 96/224/5
f 55/140/54 18/57/54 17/54/54 41/113/54
usemtl Wood_panel
f 9/22/14 12/36/14 15/46/14 8/20/14
f 40/110/54 39/109/54 8/20/54 15/46/54
f 39/109/5 40/110/5 56/142/5 61/160/5
